PathFileType	4	(X/Y/Z)	C:/Users/beibeiliu/ov580/test_trc/User2\sequence.5_training_dense_right.trc
DataRate	CameraRate	NumFrames	NumMarkers	Units	OrigDataRate	OrigDataStartFrame	OrigNumFrames
120	120	20	19	mm	120	1	417
Frame#	Time	ThumbCMC			ThumbMCP			ThumbIP			ThumbTip			IndexMCP			IndexPIP			IndexTip			MiddleMCP			MiddlePIP			MiddleTip			RingMCP			RingPIP			RingTip			PinkyMCP			PinkyPIP			PinkyTip			BackHand1			BackHand2			BackHand3	
		X0	Y0	Z0	X1	Y1	Z1	X2	Y2	Z2	X3	Y3	Z3	X4	Y4	Z4	X5	Y5	Z5	X6	Y6	Z6	X7	Y7	Z7	X8	Y8	Z8	X9	Y9	Z9	X10	Y10	Z10	X11	Y11	Z11	X12	Y12	Z12	X13	Y13	Z13	X14	Y14	Z14	X15	Y15	Z15	X16	Y16	Z16	X17	Y17	Z17	X18	Y18	Z18	
0	0	69.2088	16.9168	86.9284	38.3064	10.7641	73.183	13.4727	2.80643	50.218	-3.39362	-5.23001	35.5364	66.8353	26.8301	2.9283	56.8948	26.1016	-25.7855	47.5544	28.7291	-47.0984	97.6864	27.5645	-9.99077	91.8323	25.6	-40.2767	93.6653	24.0052	-72.4004	121.125	17.7259	-8.21268	123.282	15.4739	-34.6615	127.104	16.1649	-63.1081	144.306	4.75335	6.17497	154.716	-0.439513	-16.2003	165.078	0.126197	-34.9362	125.314	29.2997	46.1676	130.706	39.2741	79.0914	94.0645	38.4919	68.1597	
1	0.00833333	65.8075	17.2279	81.9518	42.3209	9.7933	72.4253	14.4276	2.79729	47.9514	-5.65593	-5.39459	38.7303	66.6102	25.623	2.18309	54.6456	26.9126	-25.0687	49.9395	28.2324	-51.9612	94.0411	26.7855	-9.34178	90.6938	24.6883	-44.8833	92.8765	23.6323	-74.8247	118.753	17.8097	-10.9291	127.451	14.1264	-32.1596	125.575	15.1398	-63.4677	143.348	3.85001	6.43048	155.091	-1.05076	-17.8197	161.834	-1.03312	-40.425	124.88	28.3274	45.8034	130.654	37.8425	78.1086	92.7708	39.05	64.3348	
2	0.0166667	65.7969	17.2162	87.0763	41.9531	8.99017	69.6384	13.1818	2.51221	49.3019	-3.60887	-5.50478	36.1965	66.9092	25.4055	1.4757	54.7857	25.9524	-21.4156	51.1258	27.6879	-49.0108	93.6751	26.2708	-14.6581	90.5489	24.105	-44.4994	93.2299	22.5906	-76.3397	121.728	17.0775	-9.56647	123.4	13.8831	-32.4618	126.124	12.858	-62.6896	143.751	4.76264	4.95829	154.243	-2.44398	-15.5201	161.178	-1.53851	-36.5999	125.655	28.0656	44.4293	133.224	37.9086	74.6725	95.0941	39.2295	65.177	
3	0.025	64.2452	17.733	84.4862	40.3441	9.82494	73.0302	13.5968	2.50742	47.8263	-6.0805	-5.99058	36.8536	65.3004	25.9444	3.86963	54.0005	26.3507	-25.5052	51.9311	28.1877	-50.6456	98.0645	26.5705	-12.7668	94.719	23.9149	-45.8295	96.0499	21.428	-74.645	120.161	18.6185	-11.1666	124.81	15.0076	-36.3613	124.561	12.8471	-63.394	143.432	4.97488	6.24171	152.34	-1.99194	-13.8804	163.471	-1.13033	-39.7581	123.001	30.4971	44.6774	132.205	36.7084	77.9331	90.8314	38.5327	62.5792	
4	0.0333333	63.0788	17.6999	84.2424	41.2005	8.76519	72.5331	13.7095	1.63259	50.2717	-5.37459	-7.48592	36.5681	66.2057	25.8131	0.725259	54.8963	26.2194	-21.5345	52.6201	26.7011	-49.3018	93.8539	26.2166	-8.1592	92.6762	22.5238	-44.5911	93.2254	21.6266	-71.693	119.589	16.8012	-5.28077	121.938	14.1818	-36.1245	124.919	13.5437	-63.8222	144.438	3.17601	9.86037	153.876	-1.86548	-17.4648	163.298	-3.00454	-39.3217	124.178	28.9142	48.6842	135.109	37.4999	77.9791	96.8335	37.6061	66.3094	
5	0.0416667	63.9425	17.148	83.0448	43.3741	8.14588	71.1617	17.3305	0.366669	53.4026	-2.46142	-7.67842	38.9929	63.9673	25.3212	2.88733	58.5634	25.6088	-25.0744	46.3361	28.3484	-50.5677	96.7377	26.0288	-8.71924	95.9345	23.378	-41.2602	93.3141	21.7841	-69.9893	119.066	17.4061	-8.87815	125.523	14.5099	-32.716	123.206	12.6233	-59.9991	146.789	3.31935	6.62239	151.824	-1.73819	-14.3909	165.798	-1.57121	-39.6702	128.299	27.6421	45.3249	132.352	36.4131	75.6726	96.2589	37.4696	62.4577	
6	0.05	66.6547	16.1717	83.6278	40.6422	9.45508	73.7353	12.458	1.77695	52.473	-5.31048	-7.84394	40.9408	65.3287	24.9923	2.44593	53.5529	25.8684	-23.8879	51.8438	26.7845	-50.6079	93.9915	26.3049	-9.68158	93.563	22.7159	-41.0044	93.9729	21.4191	-71.7554	123.22	17.0635	-8.77617	126.461	13.6814	-32.8585	126.676	12.4959	-59.6887	143.744	3.39079	8.78376	156.329	-3.39009	-15.7486	165.739	-2.77525	-40.1537	125.418	29.4346	48.4001	130.695	36.6804	78.229	94.3276	37.0677	63.6576	
7	0.0583333	66.429	16.5894	88.167	40.7746	9.38116	73.4963	13.9776	1.25863	53.1914	-5.5345	-7.28941	38.9552	63.3741	25.9548	2.67813	56.2049	25.1188	-26.394	49.0309	27.9951	-52.3886	95.8535	24.89	-11.7759	93.6272	22.0096	-42.6384	96.6645	21.3425	-75.9637	123.749	16.039	-9.41179	127.527	13.5407	-34.1738	123.923	13.5177	-59.7983	143.891	3.63456	10.0102	152.419	-2.56477	-13.1632	165.552	-1.35024	-36.8803	124.168	29.9855	43.941	131.876	37.6896	79.5749	92.7142	38.4681	66.7792	
8	0.0666667	68.0559	15.9539	82.4761	41.1063	8.90977	73.7693	16.6679	0.730408	54.1665	-4.12082	-8.24366	40.9618	65.2529	25.2725	0.815654	55.5128	26.3028	-24.435	51.5402	27.1696	-48.3519	96.724	25.764	-10.6319	94.2703	22.2554	-45.1687	93.9027	21.1842	-70.0773	120.648	17.754	-5.6725	124.188	13.8874	-31.6444	125.992	14.0619	-62.8767	145.782	4.02884	8.25657	152.491	-2.3752	-16.3963	166.016	-3.4388	-34.6678	128.888	29.7494	44.626	134.802	36.5881	75.7691	96.6339	37.3437	66.8036	
9	0.075	66.5863	17.4428	87.4012	40.4217	8.01366	72.9758	15.1061	0.696941	54.4466	-5.32626	-7.77897	39.4592	67.1259	25.9141	0.204749	54.6094	25.2771	-21.0242	49.6033	27.0201	-51.2051	92.9493	27.295	-12.9972	93.3457	23.0931	-45.0579	92.3102	22.3632	-71.1312	121.39	17.9659	-6.09531	122.808	14.3352	-31.9403	123.869	13.7939	-61.4654	147.778	4.00933	8.26589	153.626	-1.68659	-15.7398	161.866	-0.840184	-37.6519	123.949	28.1724	47.9357	134.08	35.9322	74.6505	98.3523	39.292	66.7298	
10	0.0833333	67.8392	17.6039	83.0098	37.84	9.09152	71.0389	11.563	-0.776018	53.4223	-5.42777	-10.3106	37.9025	65.2191	26.7826	3.83738	52.9113	26.4903	-25.3652	52.3376	27.8545	-49.6058	94.9342	27.3493	-12.745	95.58	24.7926	-42.1002	93.7051	21.8724	-72.6295	122.347	18.3701	-10.4191	123.756	15.1978	-33.4318	123.795	13.5888	-61.9859	147.779	3.76177	7.45517	152.766	-1.79146	-16.5385	162.988	-1.90798	-41.6289	124.143	29.8284	48.8548	133.078	39.1251	78.0127	96.7497	37.8684	66.97	
11	0.0916667	66.4323	16.896	87.4714	42.7318	6.91616	71.0708	11.8642	-3.02522	49.3843	-7.34942	-12.9546	36.2344	62.1878	27.2444	1.79087	54.6488	27.3907	-25.3442	48.5483	28.7446	-51.8522	91.9181	28.5105	-9.25093	92.9854	25.5649	-43.8763	89.6135	22.3152	-73.3388	120.722	19.367	-9.83291	123.745	14.4603	-33.6889	121.38	11.3083	-64.7052	142.689	5.27778	2.80475	153.217	-2.56486	-19.9025	161.969	-6.50706	-41.0504	124.749	30.2946	43.4009	131.358	38.5514	76.6863	91.2397	38.4436	63.7231	
12	0.1	62.4652	16.816	87.3232	40.2926	4.93449	71.3307	14.5759	-6.71709	53.4993	-3.62331	-16.9065	38.3335	60.0416	30.0497	0.752089	54.1021	28.959	-24.6267	45.749	29.6839	-46.6316	90.2624	30.615	-13.427	93.6467	24.5949	-46.0781	91.7805	19.1702	-73.7457	118.14	19.7325	-10.7019	123.561	13.4176	-37.0304	117.966	9.04202	-64.2611	143.953	6.19494	3.9564	148.917	-3.11296	-19.2296	155.212	-10.3038	-42.5604	122.042	33.6739	45.7364	129.532	38.2745	77.1003	91.0553	41.434	67.9837	
13	0.108333	64.4645	16.0623	84.0922	38.302	2.72181	71.3838	15.3722	-8.69369	51.0411	-2.11261	-20.9326	38.6921	63.6613	31.2748	3.70977	54.8079	32.3327	-23.7445	45.742	33.9114	-51.7471	94.7757	32.6261	-8.33736	92.8644	27.5364	-41.5508	91.4614	17.5516	-75.6096	119.76	20.8589	-10.9203	116.316	14.3953	-34.2993	117.923	5.75234	-60.1469	143.327	7.48808	7.73305	147.961	-5.20175	-20.2335	148.586	-13.4013	-40.083	121.173	34.6851	50.2971	128.365	39.9935	77.555	89.1839	42.6763	69.7353	
14	0.116667	61.3342	16.0006	85.3738	35.2255	1.77386	74.4543	14.6469	-10.7821	50.9695	-3.27174	-22.9773	32.1134	59.3914	35.4901	2.26126	53.522	34.7657	-25.023	44.8956	35.7952	-48.2031	88.884	34.8274	-8.58027	92.057	28.8255	-40.1664	88.753	15.0638	-73.0007	118.823	23.0125	-8.37035	117.362	13.8877	-37.3466	112.836	-0.628936	-63.0882	139.578	8.81871	7.44798	146.582	-4.40447	-16.9787	143.526	-20.73	-42.0194	123.118	35.9365	49.7762	125.643	42.0586	81.5702	88.2396	41.7393	67.6968	
15	0.125	58.8778	17.2586	86.455	37.5481	0.68308	72.7582	14.9542	-12.8768	51.373	2.25702	-25.5284	33.2653	58.0852	38.1572	5.20327	49.6807	37.5818	-22.6541	42.9899	38.9505	-46.6366	88.7801	37.1544	-9.2372	85.6134	27.7481	-42.5617	84.4878	10.2671	-68.4926	112.029	25.68	-8.22447	117.602	14.2924	-32.7584	110.025	-8.38068	-57.319	137.599	10.738	6.84304	139.807	-6.24928	-17.3818	132.663	-26.6903	-36.6902	123.747	39.3928	52.1629	128.548	44.0599	80.5554	88.6614	43.6098	73.1102	
16	0.133333	62.7689	16.8388	87.546	37.3477	-1.10631	71.7583	20.1971	-15.8913	45.1746	8.28065	-30.1068	26.9292	57.2065	40.9664	6.37411	47.6757	40.9365	-18.841	45.1074	41.838	-47.81	86.8799	39.4357	-4.65598	84.15	25.7069	-38.5616	85.7528	-2.74816	-60.0573	110.214	26.1428	-3.14101	108.974	7.54808	-32.8267	99.2583	-21.626	-46.6658	134.99	12.0164	8.97127	129.308	-11.2475	-17.6197	117.441	-36.5201	-26.1116	121.369	41.3915	54.054	128.994	45.3954	85.1957	89.8224	45.0883	75.5028	
17	0.141667	59.7818	18.8647	86.0909	42.0652	-2.36969	65.8452	23.5152	-19.6853	44.7455	17.9812	-32.9046	23.2065	59.2919	43.8511	5.68215	50.5753	44.2447	-19.8067	44.9848	43.813	-45.0857	87.733	36.2681	-9.00372	82.7077	13.9719	-38.7763	75.606	-19.9518	-45.6512	105.534	22.9277	-7.5116	103.754	-4.28429	-29.5022	89.6889	-32.1042	-26.6693	128.088	9.93671	3.73672	120.438	-17.9809	-13.9274	108.643	-44.0214	-9.06398	122.455	42.5174	52.1403	129.507	46.354	85.8624	87.2351	47.8645	75.4731	
18	0.15	58.6871	19.5808	88.8759	42.5628	-2.91673	62.7321	29.0772	-22.118	38.8283	28.9017	-35.081	12.4113	56.3413	45.7017	8.43455	50.2742	46.5259	-17.6763	46.1579	47.3181	-48.488	82.1245	32.3356	-11.1454	80.0135	5.8281	-32.6242	74.5956	-34.2255	-23.7041	107.206	17.0673	-6.09716	97.2458	-10.2664	-22.7053	83.9429	-40.1423	-4.27754	125.433	6.76061	5.68643	110.743	-25.1277	-6.32388	100.175	-42.9079	12.2735	117.594	42.7464	49.3302	125.787	44.2548	82.5098	90.0914	50.0008	72.7071	
19	0.158333	58.5121	18.2696	84.4503	46.5416	-4.11719	58.6827	38.6961	-22.6868	33.4019	42.3732	-35.4617	6.22493	56.7814	44.5968	9.90219	48.4707	47.3678	-18.575	41.8396	48.2114	-44.4049	83.6767	24.8871	-11.0941	75.2767	-7.09395	-25.9371	69.7809	-40.2298	-3.97024	101.399	8.8448	-8.79213	89.947	-20.0387	-14.2553	81.6522	-41.8678	15.5539	120.865	2.54107	6.73317	107.571	-29.3108	1.89959	91.174	-37.542	31.2375	115.816	42.3393	46.1835	126.534	45.0114	78.3493	90.3851	49.4991	73.7944	
